<svg xmlns="http://www.w3.org/2000/svg" xmlns:xlink="http://www.w3.org/1999/xlink" version="1.1" x="0px" y="0px" viewBox="0 0 278.574 199.11874999999998" style="enable-background:new 0 0 278.574 159.295;" xml:space="preserve"><g><path d="M124.418,97.328c-2.147-2.74-5.378-4.471-8.846-4.747c-3.471-0.273-6.933,0.927-9.485,3.292l-30.969,28.693   c-9.693-10.762-17.301-24.455-23.27-34.34l-4.944,9.806c-1.74,3.461-5.233,5.611-9.113,5.611c-1.587,0-3.173-0.379-4.589-1.094   c-2.431-1.225-4.239-3.326-5.093-5.914c-0.853-2.588-0.648-5.352,0.58-7.787l6.781-13.45c-2.378-0.269-4.718,0.082-6.832,1.218   c-7.751,4.163-13.797,15.914-7.682,30.14c8.523,19.511,16.267,30.216,33.113,44.925c13.141,9.817,22.422,3.623,29.127-2.624   c0.448-0.418,0.876-0.822,1.283-1.218c0.407-0.295,0.806-0.607,1.184-0.958l-0.002-0.002l27.461-25.443l24.375,31.073   c2.466,3.144,6.137,4.786,9.844,4.786c2.699,0,5.418-0.87,7.707-2.665c5.432-4.263,6.382-12.119,2.121-17.551L124.418,97.328z"/><path d="M46.284,45.456c-0.777-3.84-2.544-7.53-5.369-10.643c-8.353-9.199-22.582-9.888-31.783-1.534   c-5.66,5.139-8.084,12.502-7.176,19.551c1.323-0.979,2.902-1.649,4.644-1.892L46.284,45.456z"/><path d="M38.777,67.091l-23.898,3.302C22.596,73.926,31.946,72.879,38.777,67.091z"/><path d="M34.195,102.586c1.154,0.582,2.385,0.858,3.596,0.858c2.926,0,5.744-1.609,7.151-4.402h-0.002l20.87-41.396   c1.343-2.666,1.1-5.826-0.636-8.254c-1.736-2.429-4.647-3.683-7.604-3.271L6.904,53.118c-4.376,0.607-7.433,4.644-6.828,9.021   c0.604,4.377,4.644,7.434,9.021,6.83l35.563-4.914L30.653,91.841C28.663,95.786,30.25,100.598,34.195,102.586z"/><path d="M256.778,43.815c-9.082-12.542-22.27-13.373-29.817-8.851c-0.945,0.566-1.774,1.259-2.49,2.053   c-2.87,2.246-4.683,5.262-6.15,9.358c-1.731,4.774-3.169,11.139-5.664,20.278c-1.092,3.975-2.704,6.712-4.533,8.631   c1.515-0.092,2.922-0.285,4.248-0.567c1.293-1.964,2.391-4.361,3.18-7.273c2.425-8.897,3.869-15.16,5.432-19.604   c0.081,4.336,1.442,8.954,3.955,12.821c0.467,0.878,0.956,1.786,1.456,2.713c2.447-5.189,3.006-11.035,3.01-12.046   c0.082-5.635,4.657-10.146,10.204-10.146h0.013h0.095c5.625,0.063,10.15,4.691,10.088,10.313v0.018l-0.002,0.088   c-0.05,1.934-0.371,7.123-2.311,13.551c-2.265,7.454-5.834,13.667-10.636,18.567c2.051,4.464,3.933,9.083,5.429,13.746   l-38.415,6.964c-5.013,0.909-8.997,4.805-10.017,9.796c-1.02,4.99,1.117,10.139,5.369,12.939l45.626,30.066   c2.117,1.395,4.505,2.063,6.865,2.063c4.063,0,8.047-1.977,10.45-5.621c3.797-5.767,2.203-13.52-3.559-17.316l-19.57-12.895   l17.749-3.218c0.951-0.173,1.852-0.458,2.703-0.823c0.554-0.149,1.125-0.31,1.72-0.483c8.801-2.557,18.877-7.351,17.18-23.666   C274.388,73.267,269.164,61.132,256.778,43.815z"/><ellipse transform="matrix(0.9566 -0.2913 0.2913 0.9566 2.142 59.4004)" cx="200.58" cy="22.506" rx="22.5" ry="22.5"/><path d="M188.101,72.68c0.677,0,1.35,0.091,2.017,0.225l-10.203-10.34c-0.775-0.786-2.042-0.795-2.828-0.018l-4.746,4.682   c-0.786,0.776-0.794,2.043-0.019,2.829l7.212,7.31C181.377,74.511,184.578,72.68,188.101,72.68z"/><path d="M239.691,43.384c-4.408-0.047-8.023,3.479-8.086,7.884h-0.003c0.001,0.002,0.001,0.004,0.001,0.007   c0,0.004-0.001,0.011-0.001,0.021h0.002c0.014,0.601-0.448,7.962-3.833,14.232c-1.712,3.223-4.041,6.129-7.346,8.283   c-3.324,2.141-7.745,3.725-14.496,3.746c-4.28,0.002-9.48-0.678-15.709-2.39c-4.263-1.169-8.665,1.339-9.832,5.6   c-1.169,4.26,1.337,8.663,5.6,9.832c7.366,2.019,13.972,2.957,19.941,2.957c0.047,0.001,0.096,0.001,0.142,0.001   c9.614,0,17.612-2.587,23.66-6.72c9.171-6.262,13.515-15.284,15.652-22.319c2.14-7.098,2.202-12.557,2.218-13.046   C247.651,47.052,244.109,43.432,239.691,43.384z"/></g></svg>