<svg xmlns="http://www.w3.org/2000/svg" data-name="Layer 1" viewBox="0 0 52.54 80.625" x="0px" y="0px"><title>57</title><path d="M163.61,1356.78a3.38,3.38,0,0,0,3.38-3.38v-12.27a3.38,3.38,0,0,0-3.38-3.38h-16.5a3.38,3.38,0,0,0-3.38,3.38v12.27a3.38,3.38,0,0,0,3.38,3.38h3.12v9.58h-0.79a1.87,1.87,0,0,0-1.87,1.87v2.48a1.87,1.87,0,0,0,1.87,1.87h0.79v10.62h-3.12a3.38,3.38,0,0,0-3.38,3.38v12.27a3.38,3.38,0,0,0,3.38,3.38h16.5a3.38,3.38,0,0,0,3.38-3.38V1386.6a3.38,3.38,0,0,0-3.38-3.38h-3.12v-10.62h0.79a1.87,1.87,0,0,0,1.87-1.87v-2.48a1.87,1.87,0,0,0-1.87-1.87h-0.79v-9.58h3.12Z" transform="translate(-143.73 -1337.75)"/><path d="M192.88,1356.78a3.38,3.38,0,0,0,3.38-3.38v-12.27a3.38,3.38,0,0,0-3.38-3.38h-16.5a3.38,3.38,0,0,0-3.38,3.38v12.27a3.38,3.38,0,0,0,3.38,3.38h3.12v9.58h-0.79a1.87,1.87,0,0,0-1.87,1.87v2.48a1.87,1.87,0,0,0,1.87,1.87h0.79v10.62h-3.12a3.38,3.38,0,0,0-3.38,3.38v12.27a3.38,3.38,0,0,0,3.38,3.38h16.5a3.38,3.38,0,0,0,3.38-3.38V1386.6a3.38,3.38,0,0,0-3.38-3.38h-3.12v-10.62h0.79a1.87,1.87,0,0,0,1.87-1.87v-2.48a1.87,1.87,0,0,0-1.87-1.87h-0.79v-9.58h3.12Z" transform="translate(-143.73 -1337.75)"/></svg>